<?xml version="1.0" encoding="UTF-8" standalone="no"?>
<!-- Created with Inkscape (http://www.inkscape.org/) -->

<svg
   width="210mm"
   height="297mm"
   viewBox="0 0 210 297"
   version="1.1"
   id="svg5"
   inkscape:version="1.2.2 (b0a8486541, 2022-12-01)"
   sodipodi:docname="Draw_1.svg"
   xml:space="preserve"
   inkscape:export-filename="Draw_1.pdf"
   inkscape:export-xdpi="96"
   inkscape:export-ydpi="96"
   xmlns:inkscape="http://www.inkscape.org/namespaces/inkscape"
   xmlns:sodipodi="http://sodipodi.sourceforge.net/DTD/sodipodi-0.dtd"
   xmlns="http://www.w3.org/2000/svg"
   xmlns:svg="http://www.w3.org/2000/svg"><sodipodi:namedview
     id="namedview7"
     pagecolor="#ffffff"
     bordercolor="#000000"
     borderopacity="0.25"
     inkscape:showpageshadow="2"
     inkscape:pageopacity="0.0"
     inkscape:pagecheckerboard="0"
     inkscape:deskcolor="#d1d1d1"
     inkscape:document-units="mm"
     showgrid="false"
     inkscape:zoom="0.578125"
     inkscape:cx="713.51351"
     inkscape:cy="556.10811"
     inkscape:window-width="1440"
     inkscape:window-height="831"
     inkscape:window-x="0"
     inkscape:window-y="0"
     inkscape:window-maximized="1"
     inkscape:current-layer="layer1" /><defs
     id="defs2"><marker
       style="overflow:visible"
       id="Arrow1L"
       refX="0"
       refY="0"
       orient="auto-start-reverse"
       inkscape:stockid="Arrow1L"
       markerWidth="8.75"
       markerHeight="5"
       viewBox="0 0 8.75 5"
       inkscape:isstock="true"
       inkscape:collect="always"
       preserveAspectRatio="xMidYMid"><path
         style="fill:context-stroke;fill-rule:evenodd;stroke:none"
         d="M 0,0 5,-5 -12.5,0 5,5 Z"
         id="arrow1L"
         transform="scale(-0.5)" /></marker><marker
       style="overflow:visible"
       id="TriangleStart"
       refX="0"
       refY="0"
       orient="auto-start-reverse"
       inkscape:stockid="TriangleStart"
       markerWidth="5.3244081"
       markerHeight="6.155385"
       viewBox="0 0 5.3244081 6.1553851"
       inkscape:isstock="true"
       inkscape:collect="always"
       preserveAspectRatio="xMidYMid"><path
         transform="scale(0.5)"
         style="fill:context-stroke;fill-rule:evenodd;stroke:context-stroke;stroke-width:1pt"
         d="M 5.77,0 -2.88,5 V -5 Z"
         id="path135" /></marker><marker
       style="overflow:visible"
       id="Arrow1L-7"
       refX="0"
       refY="0"
       orient="auto-start-reverse"
       inkscape:stockid="Arrow1L"
       markerWidth="8.75"
       markerHeight="5"
       viewBox="0 0 8.75 5"
       inkscape:isstock="true"
       inkscape:collect="always"
       preserveAspectRatio="xMidYMid"><path
         style="fill:context-stroke;fill-rule:evenodd;stroke:none"
         d="M 0,0 5,-5 -12.5,0 5,5 Z"
         id="arrow1L-0"
         transform="scale(-0.5)" /></marker><marker
       style="overflow:visible"
       id="Arrow1L-7-3"
       refX="0"
       refY="0"
       orient="auto-start-reverse"
       inkscape:stockid="Arrow1L"
       markerWidth="8.75"
       markerHeight="5"
       viewBox="0 0 8.75 5"
       inkscape:isstock="true"
       inkscape:collect="always"
       preserveAspectRatio="xMidYMid"><path
         style="fill:context-stroke;fill-rule:evenodd;stroke:none"
         d="M 0,0 5,-5 -12.5,0 5,5 Z"
         id="arrow1L-0-6"
         transform="scale(-0.5)" /></marker><marker
       style="overflow:visible"
       id="Arrow1L-7-6"
       refX="0"
       refY="0"
       orient="auto-start-reverse"
       inkscape:stockid="Arrow1L"
       markerWidth="8.75"
       markerHeight="5"
       viewBox="0 0 8.75 5"
       inkscape:isstock="true"
       inkscape:collect="always"
       preserveAspectRatio="xMidYMid"><path
         style="fill:context-stroke;fill-rule:evenodd;stroke:none"
         d="M 0,0 5,-5 -12.5,0 5,5 Z"
         id="arrow1L-0-2"
         transform="scale(-0.5)" /></marker><marker
       style="overflow:visible"
       id="Arrow1L-7-1"
       refX="0"
       refY="0"
       orient="auto-start-reverse"
       inkscape:stockid="Arrow1L"
       markerWidth="8.75"
       markerHeight="5"
       viewBox="0 0 8.75 5"
       inkscape:isstock="true"
       inkscape:collect="always"
       preserveAspectRatio="xMidYMid"><path
         style="fill:context-stroke;fill-rule:evenodd;stroke:none"
         d="M 0,0 5,-5 -12.5,0 5,5 Z"
         id="arrow1L-0-8"
         transform="scale(-0.5)" /></marker></defs><g
     inkscape:label="Layer 1"
     inkscape:groupmode="layer"
     id="layer1"><path
       style="fill:none;stroke:#000000;stroke-width:2;stroke-dasharray:none;marker-start:url(#TriangleStart)"
       d="m 159.9998,164.05444 -99.999748,0.005"
       id="path256-3" /><path
       style="fill:none;stroke:#ff00ff;stroke-width:0.777553;stroke-dasharray:none;marker-start:url(#Arrow1L);stroke-opacity:1"
       d="M 87.86626,136.24671 77.483938,125.76945"
       id="path256-3-2" /><path
       style="fill:none;stroke:#ff00ff;stroke-width:0.777553;stroke-dasharray:none;stroke-opacity:1;marker-start:url(#Arrow1L-7)"
       d="M 97.643712,120.9973 87.26139,110.52004"
       id="path256-3-2-9" /><path
       style="fill:none;stroke:#ff00ff;stroke-width:0.777553;stroke-dasharray:none;stroke-opacity:1;marker-start:url(#Arrow1L-7-3)"
       d="M 118.63137,116.596 108.24899,106.11874"
       id="path256-3-2-9-0" /><path
       style="fill:none;stroke:#ff00ff;stroke-width:0.777553;stroke-dasharray:none;stroke-opacity:1;marker-start:url(#Arrow1L-7-6)"
       d="M 130.80229,106.54177 120.41991,96.064534"
       id="path256-3-2-9-6" /><path
       style="fill:none;stroke:#ff00ff;stroke-width:0.777553;stroke-dasharray:none;stroke-opacity:1;marker-start:url(#Arrow1L-7-1)"
       d="M 141.38569,89.079233 131.00331,78.602024"
       id="path256-3-2-9-7" /><path
       style="fill:none;stroke:#000000;stroke-width:1;stroke-dasharray:1, 2;stroke-dashoffset:0"
       d="m 129.64499,163.54167 0.001,-86.87015"
       id="path256-3-3" /><path
       style="fill:none;stroke:#000000;stroke-width:1;stroke-dasharray:1,2;stroke-dashoffset:0"
       d="m 75.894275,163.28436 0.001,-38.65095"
       id="path256-3-3-2" /><path
       style="fill:none;stroke:#000000;stroke-width:1;stroke-dasharray:1, 2;stroke-dashoffset:0"
       d="m 61.514532,76.222018 67.338098,10e-4"
       id="path256-3-3-6" /><path
       style="fill:none;stroke:#000000;stroke-width:1;stroke-dasharray:1, 2;stroke-dashoffset:0"
       d="m 61.541262,124.58314 14.03868,-0.005"
       id="path256-3-3-5" /><path
       style="fill:none;stroke:#000000;stroke-width:2;stroke-dasharray:none;marker-start:url(#TriangleStart)"
       d="m 61,64.156048 0.0048,99.999742"
       id="path256" /><path
       style="fill:none;stroke:#000000;stroke-width:1.5;stroke-dasharray:none"
       d="m 75.825335,125.00592 c 6.589722,-21.10999 18.616313,-19.89702 23.317907,-19.34909 4.701598,0.54793 19.108808,-4.24542 21.929208,-16.748852 2.8204,-12.503434 9.14237,-12.456031 9.14237,-12.456031"
       id="path1208" /><path
       style="fill:none;stroke:#008080;stroke-width:1.5;stroke-dasharray:none;stroke-opacity:1"
       d="m 92.615637,142.56438 c 6.589721,-21.10999 18.616313,-19.89702 23.317903,-19.34908 4.7016,0.54792 19.10882,-4.24543 21.92922,-16.74886 2.8204,-12.503428 9.14237,-12.45603 9.14237,-12.45603"
       id="path1208-6" /><g
       stroke="#000000"
       fill="#000000"
       stroke-width="0"
       transform="matrix(0.01365937,0,0,-0.01365937,42.41242,78.902159)"
       id="g1356"><g
         data-mml-node="math"
         id="g1354"><g
           data-mml-node="msub"
           id="g1352"><g
             data-mml-node="mi"
             id="g1346"><path
               id="use1344"
               d="m 52,289 q 7,42 54,97 47,55 116,56 35,0 64,-18 29,-18 43,-45 42,63 101,63 37,0 64,-22 27,-22 28,-59 0,-29 -14,-47 -14,-18 -27,-22 -13,-4 -23,-4 -19,0 -31,11 -12,11 -12,29 0,46 50,63 -11,13 -40,13 -13,0 -19,-2 -38,-16 -56,-66 -60,-221 -60,-258 0,-28 16,-40 16,-12 35,-12 37,0 73,33 36,33 49,81 3,10 6,11 3,1 16,2 h 4 q 15,0 15,-8 0,-1 -2,-11 Q 486,77 440,33 394,-11 333,-11 263,-11 227,52 186,-10 133,-10 h -6 q -49,0 -70,26 -21,26 -22,55 0,32 19,52 19,20 45,20 43,0 43,-42 Q 142,81 130,66 118,51 107,46 96,41 94,41 l -3,-1 q 0,-1 6,-4 6,-3 16,-7 10,-4 19,-3 36,0 62,45 9,16 23,68 14,52 28,108 14,56 16,66 5,27 5,39 0,28 -15,40 -15,12 -34,12 -40,0 -75,-32 -35,-32 -49,-82 -2,-9 -5,-10 -3,-1 -16,-2 H 58 q -6,6 -6,11 z" /></g><g
             data-mml-node="mn"
             transform="matrix(0.707,0,0,0.707,605,-150)"
             id="g1350"><path
               id="use1348"
               d="m 213,578 -13,-5 q -14,-5 -40,-10 -26,-5 -58,-7 H 83 v 46 h 19 q 47,2 87,15 40,13 56,24 16,11 28,22 2,3 12,3 9,0 17,-6 V 361 l 1,-300 q 7,-7 12,-9 5,-2 24,-4 19,-2 62,-2 h 26 V 0 H 416 Q 395,3 257,3 121,3 100,0 H 88 v 46 h 26 q 22,0 38,0 16,0 25,1 9,1 16,3 7,2 8,2 1,0 6,5 5,5 6,4 z" /></g></g></g></g><g
       stroke="#000000"
       fill="#000000"
       stroke-width="0"
       transform="matrix(0.01366375,0,0,-0.01366375,41.521769,127.63828)"
       id="g3166"><g
         data-mml-node="math"
         id="g3164"><g
           data-mml-node="msub"
           id="g3162"><g
             data-mml-node="mi"
             id="g3156"><path
               id="use3154"
               d="m 52,289 q 7,42 54,97 47,55 116,56 35,0 64,-18 29,-18 43,-45 42,63 101,63 37,0 64,-22 27,-22 28,-59 0,-29 -14,-47 -14,-18 -27,-22 -13,-4 -23,-4 -19,0 -31,11 -12,11 -12,29 0,46 50,63 -11,13 -40,13 -13,0 -19,-2 -38,-16 -56,-66 -60,-221 -60,-258 0,-28 16,-40 16,-12 35,-12 37,0 73,33 36,33 49,81 3,10 6,11 3,1 16,2 h 4 q 15,0 15,-8 0,-1 -2,-11 Q 486,77 440,33 394,-11 333,-11 263,-11 227,52 186,-10 133,-10 h -6 q -49,0 -70,26 -21,26 -22,55 0,32 19,52 19,20 45,20 43,0 43,-42 Q 142,81 130,66 118,51 107,46 96,41 94,41 l -3,-1 q 0,-1 6,-4 6,-3 16,-7 10,-4 19,-3 36,0 62,45 9,16 23,68 14,52 28,108 14,56 16,66 5,27 5,39 0,28 -15,40 -15,12 -34,12 -40,0 -75,-32 -35,-32 -49,-82 -2,-9 -5,-10 -3,-1 -16,-2 H 58 q -6,6 -6,11 z" /></g><g
             data-mml-node="mn"
             transform="matrix(0.707,0,0,0.707,605,-150)"
             id="g3160"><path
               id="use3158"
               d="m 96,585 q 56,81 153,81 48,0 96,-26 48,-26 78,-92 37,-83 37,-228 0,-155 -43,-237 -20,-42 -55,-67 -35,-25 -61,-31 -26,-6 -51,-7 -26,0 -52,6 -26,6 -61,32 -35,26 -55,67 -43,82 -43,237 0,174 57,265 z m 225,12 q -30,32 -71,32 -42,0 -72,-32 -25,-26 -33,-72 -8,-46 -8,-192 0,-158 8,-208 8,-50 36,-79 28,-30 69,-30 40,0 68,30 29,30 36,84 7,54 8,203 0,145 -8,191 -8,46 -33,73 z" /></g></g></g></g><g
       stroke="#000000"
       fill="#000000"
       stroke-width="0"
       transform="matrix(0.01365912,0,0,-0.01365912,122.69549,178.75139)"
       id="g4976"><g
         data-mml-node="math"
         id="g4974"><g
           data-mml-node="msub"
           id="g4972"><g
             data-mml-node="mi"
             id="g4966"><path
               id="use4964"
               d="m 26,385 q -7,7 -7,10 0,4 3,16 3,12 5,14 2,5 9,5 7,0 51,1 h 53 l 19,80 q 3,11 7,29 4,18 7,26 3,8 6,20 3,12 8,17 5,5 10,12 5,7 14,9 9,2 18,2 18,-1 25,-11 7,-10 7,-19 0,-7 -9,-47 -9,-40 -20,-79 l -10,-37 q 0,-2 50,-2 h 51 q 7,-7 7,-11 0,-22 -13,-35 H 210 L 174,240 Q 135,80 135,68 q 0,-42 27,-42 35,0 68,34 33,34 53,84 2,6 5,7 3,1 15,2 h 4 q 15,0 15,-8 0,-3 -3,-12 Q 314,117 301,95 288,73 267,48 246,23 216,6 186,-11 155,-11 125,-11 98,4 71,19 59,56 57,64 57,83 v 18 l 35,140 q 35,141 36,142 0,2 -51,2 z" /></g><g
             data-mml-node="mn"
             transform="matrix(0.707,0,0,0.707,394,-150)"
             id="g4970"><path
               id="use4968"
               d="m 213,578 -13,-5 q -14,-5 -40,-10 -26,-5 -58,-7 H 83 v 46 h 19 q 47,2 87,15 40,13 56,24 16,11 28,22 2,3 12,3 9,0 17,-6 V 361 l 1,-300 q 7,-7 12,-9 5,-2 24,-4 19,-2 62,-2 h 26 V 0 H 416 Q 395,3 257,3 121,3 100,0 H 88 v 46 h 26 q 22,0 38,0 16,0 25,1 9,1 16,3 7,2 8,2 1,0 6,5 5,5 6,4 z" /></g></g></g></g><g
       stroke="#000000"
       fill="#000000"
       stroke-width="0"
       transform="matrix(0.01365912,0,0,-0.01365912,69.740477,178.55061)"
       id="g5988"><g
         data-mml-node="math"
         id="g5986"><g
           data-mml-node="msub"
           id="g5984"><g
             data-mml-node="mi"
             id="g5978"><path
               id="use5976"
               d="m 26,385 q -7,7 -7,10 0,4 3,16 3,12 5,14 2,5 9,5 7,0 51,1 h 53 l 19,80 q 3,11 7,29 4,18 7,26 3,8 6,20 3,12 8,17 5,5 10,12 5,7 14,9 9,2 18,2 18,-1 25,-11 7,-10 7,-19 0,-7 -9,-47 -9,-40 -20,-79 l -10,-37 q 0,-2 50,-2 h 51 q 7,-7 7,-11 0,-22 -13,-35 H 210 L 174,240 Q 135,80 135,68 q 0,-42 27,-42 35,0 68,34 33,34 53,84 2,6 5,7 3,1 15,2 h 4 q 15,0 15,-8 0,-3 -3,-12 Q 314,117 301,95 288,73 267,48 246,23 216,6 186,-11 155,-11 125,-11 98,4 71,19 59,56 57,64 57,83 v 18 l 35,140 q 35,141 36,142 0,2 -51,2 z" /></g><g
             data-mml-node="mn"
             transform="matrix(0.707,0,0,0.707,394,-150)"
             id="g5982"><path
               id="use5980"
               d="m 96,585 q 56,81 153,81 48,0 96,-26 48,-26 78,-92 37,-83 37,-228 0,-155 -43,-237 -20,-42 -55,-67 -35,-25 -61,-31 -26,-6 -51,-7 -26,0 -52,6 -26,6 -61,32 -35,26 -55,67 -43,82 -43,237 0,174 57,265 z m 225,12 q -30,32 -71,32 -42,0 -72,-32 -25,-26 -33,-72 -8,-46 -8,-192 0,-158 8,-208 8,-50 36,-79 28,-30 69,-30 40,0 68,30 29,30 36,84 7,54 8,203 0,145 -8,191 -8,46 -33,73 z" /></g></g></g></g></g></svg>
