<?xml version="1.0" encoding="UTF-8" standalone="no"?>
<!-- Created with Inkscape (http://www.inkscape.org/) -->

<svg
   width="297mm"
   height="210mm"
   viewBox="0 0 297 210"
   version="1.1"
   id="svg5"
   inkscape:version="1.2.2 (b0a8486541, 2022-12-01)"
   sodipodi:docname="Draw_4.svg"
   xml:space="preserve"
   inkscape:export-filename="Draw_4.pdf"
   inkscape:export-xdpi="96"
   inkscape:export-ydpi="96"
   xmlns:inkscape="http://www.inkscape.org/namespaces/inkscape"
   xmlns:sodipodi="http://sodipodi.sourceforge.net/DTD/sodipodi-0.dtd"
   xmlns="http://www.w3.org/2000/svg"
   xmlns:svg="http://www.w3.org/2000/svg"><sodipodi:namedview
     id="namedview7"
     pagecolor="#ffffff"
     bordercolor="#000000"
     borderopacity="0.25"
     inkscape:showpageshadow="2"
     inkscape:pageopacity="0.0"
     inkscape:pagecheckerboard="0"
     inkscape:deskcolor="#d1d1d1"
     inkscape:document-units="mm"
     showgrid="false"
     inkscape:zoom="0.56544175"
     inkscape:cx="724.21254"
     inkscape:cy="589.80435"
     inkscape:window-width="1440"
     inkscape:window-height="831"
     inkscape:window-x="0"
     inkscape:window-y="0"
     inkscape:window-maximized="1"
     inkscape:current-layer="layer1" /><defs
     id="defs2"><marker
       style="overflow:visible"
       id="Arrow1"
       refX="0"
       refY="0"
       orient="auto-start-reverse"
       inkscape:stockid="Arrow1"
       markerWidth="4.0606604"
       markerHeight="6.7071066"
       viewBox="0 0 4.0606602 6.7071068"
       inkscape:isstock="true"
       inkscape:collect="always"
       preserveAspectRatio="xMidYMid"><path
         style="fill:none;stroke:context-stroke;stroke-width:1;stroke-linecap:butt"
         d="M 3,-3 0,0 3,3"
         id="path5057"
         transform="rotate(180,0.125,0)"
         sodipodi:nodetypes="ccc" /></marker></defs><g
     inkscape:label="Layer 1"
     inkscape:groupmode="layer"
     id="layer1"><path
       style="fill:none;stroke:#000000;stroke-width:2;stroke-dasharray:none;marker-start:url(#Arrow1)"
       d="m 198.08579,100.28449 -99.999757,0.005"
       id="path256-3" /><path
       style="fill:none;stroke:#000000;stroke-width:2;stroke-dasharray:none;marker-start:url(#Arrow1)"
       d="m 198.08579,129.49728 -99.999769,0.005"
       id="path256-3-7" /><ellipse
       style="fill:none;stroke:#000000;stroke-width:2.00322072;stroke-dasharray:none"
       id="path1364"
       cx="-9.433136"
       cy="139.70662"
       rx="62.967209"
       ry="31.82736"
       transform="matrix(0.89685202,-0.4423307,0.51274499,0.85854096,0,0)" /><rect
       style="fill:none;stroke:#000000;stroke-width:2;stroke-dasharray:none"
       id="rect1418"
       width="101.56398"
       height="67.327255"
       x="182.17113"
       y="77.857353" /><circle
       style="fill:#000000;fill-opacity:1;stroke:none;stroke-width:4.35927;stroke-dasharray:none"
       id="path1420"
       cx="30.360821"
       cy="146.15059"
       r="1.25" /><circle
       style="fill:#000000;fill-opacity:1;stroke:none;stroke-width:4.35927;stroke-dasharray:none"
       id="path1420-3"
       cx="214.24667"
       cy="131.61754"
       r="1.25" /><g
       stroke="#000000"
       fill="#000000"
       stroke-width="0"
       transform="matrix(0.02385213,0,0,-0.02385219,46.387249,116.06657)"
       id="g1493"><g
         data-mml-node="math"
         id="g1491"><g
           data-mml-node="mi"
           id="g1489"><path
             id="use1487"
             d="M 666,247 Q 664,244 652,126 640,8 638,4 V 0 H 351 Q 131,0 95,0 59,0 57,5 v 1 q -3,6 0,11 l 16,19 q 16,18 48,54 32,36 61,69 L 305,299 56,644 55,658 q 0,19 5,23 3,2 291,2 h 287 v -4 q 2,-5 14,-115 12,-110 14,-117 v -4 h -40 v 4 q -8,58 -22,96 -14,38 -45,62 -30,21 -81,26 -51,5 -145,6 H 294 189 L 293,494 q 21,-29 52,-72 55,-76 55,-82 0,-2 -1,-3 L 154,57 q 253,0 274,1 48,2 80,10 32,8 43,15 11,7 24,20 20,22 33,59 13,37 16,63 l 2,26 h 40 z" /></g></g></g><g
       stroke="#000000"
       fill="#000000"
       stroke-width="0"
       transform="matrix(0.00718265,0,0,-0.00718264,260.08178,94.002556)"
       id="g1681"><g
         data-mml-node="math"
         id="g1679"><g
           data-mml-node="TeXAtom"
           data-mjx-texclass="ORD"
           id="g1677"><g
             data-mml-node="mi"
             id="g1675"><path
               id="use1673"
               d="m -1259.2752,-730.3997 q 0,93.00219 49.8225,179.36135 49.8226,86.35913 99.6453,89.68063 13.286,0 33.2151,-19.92904 19.929,-19.92903 66.4302,-46.50108 46.50098,-26.57202 126.21713,-43.17954 h 16.60752 q 53.14408,0 106.28818,73.0731 53.1441,73.07313 146.1462,292.29255 146.14636,372.0087 242.47001,677.58728 96.32368,305.5786 129.53874,471.65392 33.21506,166.07533 49.82259,282.32803 16.60754,116.2527 29.89356,176.0398 13.28603,59.7872 43.17958,86.3592 86.359161,93.0022 202.611882,93.0022 33.215058,0 43.179578,-19.9291 9.96452,-19.929 23.25055,-109.6097 3.3215,-16.6075 3.3215,-23.2505 73.07314,-401.9023 186.00435,-843.66265 112.93122,-441.76033 195.96887,-657.658229 l 19.92904,-49.822601 q 23.25054,-46.50109 43.17958,-93.00218 19.92904,-46.50108 23.25055,-46.50108 6.64301,0 136.18175,129.53874 Q 886.41777,-2.9898545 949.52639,63.440271 1188.6748,315.87474 1514.1825,694.52646 1839.69,1073.1783 2048.945,1318.9696 q 209.2549,245.7915 215.8978,249.1131 13.2861,13.286 36.5367,13.286 36.5366,0 36.5366,-76.3947 0,-23.2505 -9.9646,-73.0731 -9.9646,-49.8226 -29.8936,-162.7538 -19.929,-112.9312 -43.1796,-235.827 -149.4678,-873.55615 -149.4678,-1315.31648 0,-152.78929 9.9646,-229.18392 9.9646,-76.39461 19.929,-89.68064 9.9645,-13.28602 29.8936,-19.92904 16.6075,-3.3215 53.1441,13.28602 89.6806,49.8226 152.7892,49.8226 53.1441,0 53.1441,-36.53657 0,-73.07312 -166.0752,-166.07528 -166.0754,-93.00218 -288.9711,-96.32374 -56.4655,0 -93.0021,19.92907 -36.5367,19.929 -56.4657,46.50105 -19.929,26.57205 -33.2151,83.03771 -13.286,56.46557 -9.9645,96.32366 3.3216,39.85808 -3.3215,126.21721 v 43.17957 q 0,205.93339 36.5366,531.441001 36.5366,325.507609 73.0731,551.370039 l 36.5366,222.54094 q -3.3215,0 -152.7893,-176.03986 Q 1617.1491,511.84362 1374.6792,236.15859 1132.2093,-39.526421 966.13391,-215.56626 856.52422,-335.14048 707.05647,-477.96525 557.58869,-620.78998 534.33814,-637.39751 q -13.28602,-9.9645 -33.21506,-9.9645 -26.57205,0 -39.85807,9.9645 -13.28603,9.96452 -36.53657,56.4656 Q 348.33379,-458.0362 295.18969,-338.46198 242.04559,-218.88775 142.4004,99.976839 42.755217,418.84145 -60.211479,893.81686 l -16.607529,66.43013 Q -193.07173,458.69952 -375.75457,-19.597383 -558.43744,-497.89428 -694.61915,-710.47067 q -142.82471,-215.89789 -269.04197,-215.89789 -99.64508,0 -186.00448,49.82265 -86.3591,49.82257 -102.9667,96.32362 -6.6429,26.57205 -6.6429,49.82259 z"
               style="stroke-width:0" /></g></g></g></g><g
       stroke="#000000"
       fill="#000000"
       stroke-width="0"
       transform="matrix(0.01590001,0,0,-0.01590001,142.00229,92.998402)"
       id="g1873"><g
         data-mml-node="math"
         id="g1871"><g
           data-mml-node="mi"
           id="g1869"><path
             id="use1867"
             d="m 21,287 q 1,3 2,8 1,5 5,22 4,17 10,31 6,14 15,33 9,19 20,30 11,11 26,22 15,11 33,9 24,0 43,-7 19,-7 30,-18 11,-11 16,-22 5,-11 8,-19 l 2,-7 q 0,-2 1,-2 l 11,11 q 61,64 139,64 54,0 87,-27 33,-27 34,-79 v -10 q 0,-24 -64,-273 -58,-235 -62,-242 -13,-27 -45,-27 -13,0 -22,8 -9,8 -11,22 0,9 59,243 l 62,250 q 3,15 3,38 0,59 -44,59 h -5 Q 288,404 229,303 L 222,291 189,157 Q 156,26 151,16 138,-11 108,-11 95,-11 87,-5 79,1 76,7 q -3,6 -2,10 0,13 40,172 40,159 40,177 0,39 -26,39 -21,0 -36,-28 Q 77,349 68,316 59,283 57,280 55,278 41,278 H 27 q -6,6 -6,9 z" /></g></g></g><text
       xml:space="preserve"
       style="font-style:italic;font-weight:500;font-size:16.9333px;font-family:'CMU Serif';-inkscape-font-specification:'CMU Serif, Medium Italic';fill:#000000;fill-opacity:1;stroke:none;stroke-width:2;stroke-dasharray:none"
       x="136.03003"
       y="144.61909"
       id="text2104"><tspan
         sodipodi:role="line"
         id="tspan2102"
         style="stroke-width:2"
         x="136.03003"
         y="144.61909">X</tspan></text><text
       xml:space="preserve"
       style="font-style:italic;font-weight:500;font-size:16.9333px;font-family:'CMU Serif';-inkscape-font-specification:'CMU Serif, Medium Italic';fill:#000000;fill-opacity:1;stroke:none;stroke-width:2;stroke-dasharray:none"
       x="218.98599"
       y="137.44725"
       id="text2108"><tspan
         sodipodi:role="line"
         id="tspan2106"
         style="stroke-width:2"
         x="218.98599"
         y="137.44725">X(z)</tspan></text><text
       xml:space="preserve"
       style="font-style:italic;font-weight:500;font-size:16.9333px;font-family:'CMU Serif';-inkscape-font-specification:'CMU Serif, Medium Italic';fill:#000000;fill-opacity:1;stroke:none;stroke-width:2;stroke-dasharray:none"
       x="34.464321"
       y="148.78935"
       id="text2112"><tspan
         sodipodi:role="line"
         id="tspan2110"
         style="stroke-width:2"
         x="34.464321"
         y="148.78935">z</tspan></text></g></svg>
