<?xml version="1.0" encoding="UTF-8" standalone="no"?>
<!-- Created with Inkscape (http://www.inkscape.org/) -->

<svg
   width="297mm"
   height="210mm"
   viewBox="0 0 297 210"
   version="1.1"
   id="svg5"
   inkscape:version="1.2.2 (b0a8486541, 2022-12-01)"
   sodipodi:docname="Draw_3.svg"
   inkscape:export-filename="Draw_3.pdf"
   inkscape:export-xdpi="96"
   inkscape:export-ydpi="96"
   xmlns:inkscape="http://www.inkscape.org/namespaces/inkscape"
   xmlns:sodipodi="http://sodipodi.sourceforge.net/DTD/sodipodi-0.dtd"
   xmlns="http://www.w3.org/2000/svg"
   xmlns:svg="http://www.w3.org/2000/svg">
  <sodipodi:namedview
     id="namedview7"
     pagecolor="#ffffff"
     bordercolor="#000000"
     borderopacity="0.25"
     inkscape:showpageshadow="2"
     inkscape:pageopacity="0.0"
     inkscape:pagecheckerboard="0"
     inkscape:deskcolor="#d1d1d1"
     inkscape:document-units="mm"
     showgrid="false"
     inkscape:zoom="0.55301502"
     inkscape:cx="547.90555"
     inkscape:cy="210.66336"
     inkscape:window-width="1440"
     inkscape:window-height="831"
     inkscape:window-x="0"
     inkscape:window-y="0"
     inkscape:window-maximized="1"
     inkscape:current-layer="layer1" />
  <defs
     id="defs2">
    <marker
       style="overflow:visible"
       id="Arrow1"
       refX="0"
       refY="0"
       orient="auto-start-reverse"
       inkscape:stockid="Arrow1"
       markerWidth="4.0606604"
       markerHeight="6.7071066"
       viewBox="0 0 4.0606602 6.7071068"
       inkscape:isstock="true"
       inkscape:collect="always"
       preserveAspectRatio="xMidYMid">
      <path
         style="fill:none;stroke:context-stroke;stroke-width:1;stroke-linecap:butt"
         d="M 3,-3 0,0 3,3"
         id="path5057"
         transform="rotate(180,0.125,0)"
         sodipodi:nodetypes="ccc" />
    </marker>
    <marker
       style="overflow:visible"
       id="Arrow1-7"
       refX="0"
       refY="0"
       orient="auto-start-reverse"
       inkscape:stockid="Arrow1"
       markerWidth="4.0606604"
       markerHeight="6.7071066"
       viewBox="0 0 4.0606602 6.7071068"
       inkscape:isstock="true"
       inkscape:collect="always"
       preserveAspectRatio="xMidYMid">
      <path
         style="fill:none;stroke:context-stroke;stroke-width:1;stroke-linecap:butt"
         d="M 3,-3 0,0 3,3"
         id="path5057-5"
         transform="rotate(180,0.125,0)"
         sodipodi:nodetypes="ccc" />
    </marker>
  </defs>
  <g
     inkscape:label="Layer 1"
     inkscape:groupmode="layer"
     id="layer1">
    <path
       style="fill:none;stroke:#000000;stroke-width:2;stroke-dasharray:2, 3.99999;stroke-dashoffset:0"
       d="m 150.14483,133.29513 10e-4,-61.987924"
       id="path256-3-3" />
    <path
       style="fill:none;stroke:#000000;stroke-width:2;stroke-dasharray:12,12;stroke-dashoffset:0"
       d="m 49.826434,100.91251 199.759566,0.001"
       id="path256-3-3-3" />
    <path
       style="fill:none;stroke:#000000;stroke-width:2;stroke-dasharray:0, 22;stroke-dashoffset:0;marker-end:url(#Arrow1)"
       d="m 170.55233,100.92715 30.77002,0.001"
       id="path256-3-3-3-6" />
    <path
       style="fill:none;stroke:#000000;stroke-width:2;stroke-dasharray:0, 22;stroke-dashoffset:0;marker-end:url(#Arrow1-7)"
       d="m 75.230954,101.06195 30.770026,0.001"
       id="path256-3-3-3-6-3" />
    <text
       xml:space="preserve"
       style="font-style:italic;font-weight:500;font-size:25.4px;font-family:'CMU Serif';-inkscape-font-specification:'CMU Serif, Medium Italic';fill:#000000;stroke-width:3.375"
       x="38.907085"
       y="126.62716"
       id="text867"><tspan
         sodipodi:role="line"
         id="tspan865"
         style="stroke-width:3.375"
         x="38.907085"
         y="126.62716">x</tspan></text>
    <text
       xml:space="preserve"
       style="font-style:italic;font-weight:500;font-size:25.4px;font-family:'CMU Serif';-inkscape-font-specification:'CMU Serif, Medium Italic';fill:#000000;stroke-width:3.375"
       x="246.92827"
       y="126.2268"
       id="text871"><tspan
         sodipodi:role="line"
         id="tspan869"
         style="stroke-width:3.375"
         x="246.92827"
         y="126.2268">y</tspan></text>
    <circle
       style="fill:#000000;fill-opacity:1;stroke:none;stroke-width:10.4623;stroke-dasharray:none"
       id="path1420-3"
       cx="49.268551"
       cy="100.72157"
       r="3" />
    <circle
       style="fill:#000000;fill-opacity:1;stroke:none;stroke-width:10.4623;stroke-dasharray:none"
       id="path1420-3-6"
       cx="251.19589"
       cy="100.91135"
       r="3" />
    <g
       stroke="#000000"
       fill="#000000"
       stroke-width="0"
       transform="matrix(0.02424146,0,0,-0.02424146,94.854551,91.535562)"
       id="g1131">
      <g
         data-mml-node="math"
         id="g1129">
        <g
           data-mml-node="mi"
           id="g1119">
          <path
             id="use1117"
             d="m 34,156 q 0,114 86,200 86,86 189,86 70,0 112,-40 42,-40 57,-98 6,-29 7,-67 v -29 q 49,74 75,166 4,14 6,16 2,2 16,3 21,0 21,-8 0,-9 -9,-39 -9,-30 -36,-85 -27,-55 -61,-100 l -11,-14 1,-24 q 2,-56 8,-76 6,-20 19,-21 14,2 26,11 12,9 17,23 2,7 5,8 3,1 15,2 20,0 20,-8 0,-6 -6,-19 Q 579,19 556,5 533,-9 512,-10 h -7 q -67,0 -91,72 l -3,7 -11,-8 Q 390,53 370,41 350,29 325,18 300,7 267,-2 234,-11 203,-11 124,-11 79,39 34,89 34,156 Z M 208,26 q 49,0 98,21 49,21 73,43 l 24,22 q -2,143 -7,178 -14,115 -92,115 -69,0 -121,-73 -27,-40 -44,-108 -17,-68 -18,-104 0,-49 25,-71 25,-22 62,-23 z" />
        </g>
      </g>
    </g>
    <g
       stroke="#000000"
       fill="#000000"
       stroke-width="0"
       transform="matrix(0.02424429,0,0,-0.02424429,189.73877,92.092224)"
       id="g1357">
      <g
         data-mml-node="math"
         id="g1355">
        <g
           data-mml-node="mi"
           id="g1345">
          <path
             id="use1343"
             d="m 29,-194 q -6,6 -6,8 0,3 79,320 79,317 84,331 22,68 57,119 35,51 66,74 56,47 120,47 h 2 q 62,0 102,-38 40,-38 40,-97 0,-105 -104,-174 l 13,-13 q 51,-51 51,-131 0,-113 -85,-187 -85,-74 -191,-75 -30,0 -54,8 -24,8 -38,19 -14,11 -22,23 -8,12 -12,19 -4,7 -5,6 L 62,-188 q -2,-6 -20,-6 z m 324,625 q 39,0 74,-12 l 5,3 q 4,4 7,7 3,3 10,10 7,7 12,14 5,7 11,18 6,11 12,24 6,13 9,29 3,16 8,36 2,9 2,33 0,18 -1,23 -15,51 -76,51 -42,0 -79,-24 -37,-24 -61,-61 -24,-37 -39,-68 -15,-31 -23,-59 -5,-16 -38,-147 -33,-131 -34,-140 -1,-5 -1,-21 0,-48 22,-79 31,-42 87,-42 42,0 89,25 47,25 76,86 16,34 24,77 8,43 8,65 0,58 -35,93 -42,-14 -75,-14 h -10 q -79,0 -79,31 0,7 3,14 14,28 92,28 z" />
        </g>
      </g>
    </g>
  </g>
</svg>
