<?xml version="1.0" encoding="UTF-8" standalone="no"?>
<!-- Created with Inkscape (http://www.inkscape.org/) -->

<svg
   width="297mm"
   height="210mm"
   viewBox="0 0 297 210"
   version="1.1"
   id="svg5"
   inkscape:version="1.2.2 (b0a8486541, 2022-12-01)"
   sodipodi:docname="Draw_5.svg"
   xml:space="preserve"
   inkscape:export-filename="Draw_5.pdf"
   inkscape:export-xdpi="96"
   inkscape:export-ydpi="96"
   xmlns:inkscape="http://www.inkscape.org/namespaces/inkscape"
   xmlns:sodipodi="http://sodipodi.sourceforge.net/DTD/sodipodi-0.dtd"
   xmlns="http://www.w3.org/2000/svg"
   xmlns:svg="http://www.w3.org/2000/svg"><sodipodi:namedview
     id="namedview7"
     pagecolor="#ffffff"
     bordercolor="#000000"
     borderopacity="0.25"
     inkscape:showpageshadow="2"
     inkscape:pageopacity="0.0"
     inkscape:pagecheckerboard="0"
     inkscape:deskcolor="#d1d1d1"
     inkscape:document-units="mm"
     showgrid="false"
     inkscape:zoom="0.71149694"
     inkscape:cx="527.76053"
     inkscape:cy="360.50752"
     inkscape:window-width="1440"
     inkscape:window-height="831"
     inkscape:window-x="0"
     inkscape:window-y="0"
     inkscape:window-maximized="1"
     inkscape:current-layer="layer1" /><defs
     id="defs2"><marker
       style="overflow:visible"
       id="Arrow1L"
       refX="0"
       refY="0"
       orient="auto-start-reverse"
       inkscape:stockid="Arrow1L"
       markerWidth="8.75"
       markerHeight="5"
       viewBox="0 0 8.75 5"
       inkscape:isstock="true"
       inkscape:collect="always"
       preserveAspectRatio="xMidYMid"><path
         style="fill:context-stroke;fill-rule:evenodd;stroke:none"
         d="M 0,0 5,-5 -12.5,0 5,5 Z"
         id="arrow1L"
         transform="scale(-0.5)" /></marker></defs><g
     inkscape:label="Layer 1"
     inkscape:groupmode="layer"
     id="layer1"><circle
       style="fill:none;stroke-width:2;stroke:#000000;stroke-opacity:1;stroke-dasharray:none"
       id="path372"
       cx="100"
       cy="100"
       r="50" /><text
       xml:space="preserve"
       style="font-style:italic;font-weight:500;font-size:16.9333px;font-family:'CMU Serif';-inkscape-font-specification:'CMU Serif, Medium Italic';fill:#000000;stroke:none;stroke-width:2;stroke-dasharray:none;stroke-opacity:1;fill-opacity:1"
       x="103.67973"
       y="34.805447"
       id="text982"><tspan
         sodipodi:role="line"
         id="tspan980"
         style="stroke-width:2;stroke:none;fill:#000000;fill-opacity:1"
         x="103.67973"
         y="34.805447">r</tspan></text><text
       xml:space="preserve"
       style="font-style:italic;font-weight:500;font-size:16.9333px;font-family:'CMU Serif';-inkscape-font-specification:'CMU Serif, Medium Italic';fill:#000000;stroke:none;stroke-width:2;stroke-dasharray:none;stroke-opacity:1;fill-opacity:1"
       x="42.564564"
       y="153.65611"
       id="text986"><tspan
         sodipodi:role="line"
         id="tspan984"
         style="stroke-width:2;stroke:none;fill:#000000;fill-opacity:1"
         x="42.564564"
         y="153.65611">p</tspan></text><text
       xml:space="preserve"
       style="font-style:italic;font-weight:500;font-size:16.9333px;font-family:'CMU Serif';-inkscape-font-specification:'CMU Serif, Medium Italic';fill:#000000;stroke:none;stroke-width:2;stroke-dasharray:none;stroke-opacity:1;fill-opacity:1"
       x="153.58118"
       y="153.58667"
       id="text1040"><tspan
         sodipodi:role="line"
         id="tspan1038"
         style="stroke-width:2;stroke:none;fill:#000000;fill-opacity:1"
         x="153.58118"
         y="153.58667">q</tspan></text><path
       style="fill:none;fill-opacity:1;stroke:#000000;stroke-width:2;stroke-dasharray:none;stroke-opacity:1"
       d="m 67.98969,131.73555 c -7.810622,8.15294 -7.810622,8.15294 -7.810622,8.15294"
       id="path1100" /><path
       style="fill:none;fill-opacity:1;stroke:#008080;stroke-width:1;stroke-dasharray:6, 1;stroke-dashoffset:0;stroke-opacity:1;marker-start:url(#Arrow1L)"
       d="m 156.44914,30.890467 c -51.69026,18.30826 -51.69026,18.30826 -51.69026,18.30826"
       id="path1100-5" /><path
       style="fill:none;fill-opacity:1;stroke:#000000;stroke-width:2;stroke-dasharray:none;stroke-opacity:1"
       d="m 139.92052,139.21075 c -8.35632,-8.31901 -8.35632,-8.31901 -8.35632,-8.31901"
       id="path1100-6" /><path
       style="fill:none;fill-opacity:1;stroke:#000000;stroke-width:2;stroke-dasharray:none;stroke-opacity:1"
       d="m 101.79364,44.221298 c -0.27311,11.296514 -0.27311,11.296514 -0.27311,11.296514"
       id="path1100-7" /><g
       stroke="#000000"
       fill="#000000"
       stroke-width="0"
       transform="matrix(0.01616095,0,0,-0.01616094,166.31969,33.27653)"
       id="g4498"
       style="fill:#008080;fill-opacity:1"><g
         data-mml-node="math"
         id="g4496"
         style="fill:#008080;fill-opacity:1"><g
           data-mml-node="mi"
           id="g4484"
           style="fill:#008080;fill-opacity:1"><path
             id="use4482"
             d="m 52,289 q 7,42 54,97 47,55 116,56 35,0 64,-18 29,-18 43,-45 42,63 101,63 37,0 64,-22 27,-22 28,-59 0,-29 -14,-47 -14,-18 -27,-22 -13,-4 -23,-4 -19,0 -31,11 -12,11 -12,29 0,46 50,63 -11,13 -40,13 -13,0 -19,-2 -38,-16 -56,-66 -60,-221 -60,-258 0,-28 16,-40 16,-12 35,-12 37,0 73,33 36,33 49,81 3,10 6,11 3,1 16,2 h 4 q 15,0 15,-8 0,-1 -2,-11 Q 486,77 440,33 394,-11 333,-11 263,-11 227,52 186,-10 133,-10 h -6 q -49,0 -70,26 -21,26 -22,55 0,32 19,52 19,20 45,20 43,0 43,-42 Q 142,81 130,66 118,51 107,46 96,41 94,41 l -3,-1 q 0,-1 6,-4 6,-3 16,-7 10,-4 19,-3 36,0 62,45 9,16 23,68 14,52 28,108 14,56 16,66 5,27 5,39 0,28 -15,40 -15,12 -34,12 -40,0 -75,-32 -35,-32 -49,-82 -2,-9 -5,-10 -3,-1 -16,-2 H 58 q -6,6 -6,11 z"
             style="fill:#008080;fill-opacity:1" /></g><g
           data-mml-node="mo"
           transform="translate(849.8)"
           id="g4488"
           style="fill:#008080;fill-opacity:1"><path
             id="use4486"
             d="m 84,250 q 0,122 82,200 82,78 194,89 1,0 17,0 16,0 42,1 26,1 50,0 h 99 q 15,-8 15,-20 0,-9 -13,-19 l -104,-1 q -111,-1 -137,-6 -49,-12 -87,-36 -38,-24 -59,-49 -21,-25 -36,-55 -15,-30 -18,-48 -3,-18 -5,-34 v -2 h 444 q 15,-8 15,-20 0,-12 -15,-20 H 124 v -2 q 0,-21 10,-51 10,-30 33,-65 23,-35 64,-64 41,-29 97,-41 27,-6 138,-7 h 104 q 13,-10 13,-20 0,-12 -15,-20 h -97 q -7,0 -25,0 -18,0 -29,-1 -155,0 -245,86 -88,82 -88,205 z"
             style="fill:#008080;fill-opacity:1" /></g><g
           data-mml-node="TeXAtom"
           data-mjx-texclass="ORD"
           transform="translate(1794.6)"
           id="g4494"
           style="fill:#008080;fill-opacity:1"><g
             data-mml-node="mi"
             id="g4492"
             style="fill:#008080;fill-opacity:1"><path
               id="use4490"
               d="m 28,9 q 0,28 15,54 15,26 30,27 4,0 10,-6 6,-6 20,-14 14,-8 38,-13 h 5 q 16,0 32,22 16,22 44,88 44,112 73,204 29,92 39,142 10,50 15,85 5,35 9,53 4,18 13,26 26,28 61,28 10,0 13,-6 3,-6 7,-33 1,-5 1,-7 22,-121 56,-254 34,-133 59,-198 l 6,-15 q 7,-14 13,-28 6,-14 7,-14 2,0 41,39 39,39 58,59 72,76 170,190 98,114 161,188 63,74 65,75 4,4 11,4 11,0 11,-23 0,-7 -3,-22 -3,-15 -9,-49 -6,-34 -13,-71 -45,-263 -45,-396 0,-46 3,-69 3,-23 6,-27 3,-4 9,-6 5,-1 16,4 27,15 46,15 16,0 16,-11 0,-22 -50,-50 -50,-28 -87,-29 -17,0 -28,6 -11,6 -17,14 -6,8 -10,25 -4,17 -3,29 1,12 -1,38 v 13 q 0,62 11,160 11,98 22,166 l 11,67 q -1,0 -46,-53 Q 894,383 821,300 748,217 698,164 665,128 620,85 575,42 568,37 q -4,-3 -10,-3 -8,0 -12,3 -4,3 -11,17 -23,37 -39,73 -16,36 -46,132 -30,96 -61,239 l -5,20 Q 349,367 294,223 239,79 198,15 155,-50 117,-50 87,-50 61,-35 35,-20 30,-6 28,2 28,9 Z"
               style="fill:#008080;fill-opacity:1" /></g></g></g></g><circle
       style="fill:#008080;fill-opacity:1;stroke:none;stroke-width:8.71854;stroke-dasharray:none"
       id="path1420-3"
       cx="101.6679"
       cy="50.135113"
       r="2.5" /></g></svg>
