<?xml version="1.0" encoding="UTF-8" standalone="no"?>
<!-- Created with Inkscape (http://www.inkscape.org/) -->

<svg
   width="210mm"
   height="297mm"
   viewBox="0 0 210 297"
   version="1.1"
   id="svg5"
   inkscape:version="1.2.2 (b0a8486541, 2022-12-01)"
   sodipodi:docname="Draw_2.svg"
   xml:space="preserve"
   inkscape:export-filename="Draw_2.pdf"
   inkscape:export-xdpi="96"
   inkscape:export-ydpi="96"
   xmlns:inkscape="http://www.inkscape.org/namespaces/inkscape"
   xmlns:sodipodi="http://sodipodi.sourceforge.net/DTD/sodipodi-0.dtd"
   xmlns="http://www.w3.org/2000/svg"
   xmlns:svg="http://www.w3.org/2000/svg"><sodipodi:namedview
     id="namedview7"
     pagecolor="#ffffff"
     bordercolor="#000000"
     borderopacity="0.25"
     inkscape:showpageshadow="2"
     inkscape:pageopacity="0.0"
     inkscape:pagecheckerboard="0"
     inkscape:deskcolor="#d1d1d1"
     inkscape:document-units="mm"
     showgrid="false"
     inkscape:zoom="0.67618832"
     inkscape:cx="426.65629"
     inkscape:cy="580.4596"
     inkscape:window-width="1440"
     inkscape:window-height="831"
     inkscape:window-x="0"
     inkscape:window-y="0"
     inkscape:window-maximized="1"
     inkscape:current-layer="layer1" /><defs
     id="defs2"><marker
       style="overflow:visible"
       id="marker7803"
       refX="0"
       refY="0"
       orient="auto-start-reverse"
       inkscape:stockid="Arrow1"
       markerWidth="4.0606604"
       markerHeight="6.7071066"
       viewBox="0 0 4.0606602 6.7071068"
       inkscape:isstock="true"
       inkscape:collect="always"
       preserveAspectRatio="xMidYMid"><path
         style="fill:none;stroke:context-stroke;stroke-width:1;stroke-linecap:butt"
         d="M 3,-3 0,0 3,3"
         id="path7801"
         transform="rotate(180,0.125,0)"
         sodipodi:nodetypes="ccc" /></marker><marker
       style="overflow:visible"
       id="Arrow1"
       refX="0"
       refY="0"
       orient="auto-start-reverse"
       inkscape:stockid="Arrow1"
       markerWidth="4.0606604"
       markerHeight="6.7071066"
       viewBox="0 0 4.0606602 6.7071068"
       inkscape:isstock="true"
       inkscape:collect="always"
       preserveAspectRatio="xMidYMid"><path
         style="fill:none;stroke:context-stroke;stroke-width:1;stroke-linecap:butt"
         d="M 3,-3 0,0 3,3"
         id="path5057"
         transform="rotate(180,0.125,0)"
         sodipodi:nodetypes="ccc" /></marker></defs><g
     inkscape:label="Layer 1"
     inkscape:groupmode="layer"
     id="layer1"><path
       style="fill:none;stroke:#000000;stroke-width:2;stroke-dasharray:none;marker-start:url(#Arrow1)"
       d="m 172.466,115.40089 -49.99982,0.01"
       id="path256-3" /><path
       style="fill:none;stroke:#000000;stroke-width:2;stroke-dasharray:none"
       d="m 182.65934,65.25981 0.005,99.99974"
       id="path256" /><path
       style="fill:none;stroke:#000000;stroke-width:0.936415;stroke-dasharray:none"
       d="m 1.5513397,221.18181 29.4972163,-0.004"
       id="path256-7" /><path
       style="fill:none;stroke:#000000;stroke-width:2;stroke-dasharray:none;marker-end:url(#marker7803)"
       d="m 72.091153,152.67419 0.0099,49.99982"
       id="path256-2" /><text
       xml:space="preserve"
       style="font-style:italic;font-variant:normal;font-weight:500;font-stretch:normal;font-size:16.9333px;font-family:'CMU Serif';-inkscape-font-specification:'CMU Serif, Medium Italic';font-variant-ligatures:normal;font-variant-caps:normal;font-variant-numeric:normal;font-variant-east-asian:normal;fill:#000000;stroke-width:1"
       x="80.59684"
       y="185.48753"
       id="text8655"><tspan
         sodipodi:role="line"
         id="tspan8653"
         style="font-style:italic;font-variant:normal;font-weight:500;font-stretch:normal;font-size:16.9333px;font-family:'CMU Serif';-inkscape-font-specification:'CMU Serif, Medium Italic';font-variant-ligatures:normal;font-variant-caps:normal;font-variant-numeric:normal;font-variant-east-asian:normal;stroke-width:1"
         x="80.59684"
         y="185.48753">P</tspan></text><text
       xml:space="preserve"
       style="font-style:italic;font-variant:normal;font-weight:500;font-stretch:normal;font-size:16.9333px;font-family:'CMU Serif';-inkscape-font-specification:'CMU Serif, Medium Italic';font-variant-ligatures:normal;font-variant-caps:normal;font-variant-numeric:normal;font-variant-east-asian:normal;fill:#000000;stroke-width:1"
       x="145.85818"
       y="102.72594"
       id="text8659"><tspan
         sodipodi:role="line"
         id="tspan8657"
         style="font-style:italic;font-variant:normal;font-weight:500;font-stretch:normal;font-size:16.9333px;font-family:'CMU Serif';-inkscape-font-specification:'CMU Serif, Medium Italic';font-variant-ligatures:normal;font-variant-caps:normal;font-variant-numeric:normal;font-variant-east-asian:normal;stroke-width:1"
         x="145.85818"
         y="102.72594">F</tspan></text><g
       stroke="#000000"
       fill="#000000"
       stroke-width="0"
       transform="matrix(0.02423946,0,0,-0.02423946,186.24537,89.614709)"
       id="g8687"><g
         data-mml-node="math"
         id="g8685"><g
           data-mml-node="msup"
           id="g8683"><g
             data-mml-node="TeXAtom"
             data-mjx-texclass="ORD"
             id="g8677"><g
               data-mml-node="mi"
               id="g8675"><path
                 id="use8673"
                 d="m 27,-144 -10,13 65,56 64,55 -20,26 Q 99,37 92,48 L 78,65 77,79 q -2,24 -2,79 0,59 3,110 3,51 8,75 5,24 5,25 1,2 18,14 17,12 48,31 31,19 65,39 18,13 27,17 l 2,1 q 45,-27 99,-42 l 15,-4 72,41 5,-6 q 0,-3 -1,-6 -1,-3 -4,-9 -3,-6 -5,-20 -2,-14 -5,-39 -3,-25 -4,-68 -1,-43 -2,-102 v -82 l 2,-14 q 0,-8 32,-136 0,-4 -75,-91 -75,-87 -90,-93 0,-1 -6,-3 -6,-2 -15,-3 -9,-1 -17,-2 -80,0 -177,74 l -13,9 q -2,0 -18,-9 z m 322,495 q -82,8 -171,38 -1,-2 -5,-13 -4,-11 -7,-18 -3,-7 -5,-21 -2,-14 -4,-34 -2,-20 -2,-44 0,-64 4,-124 l 1,-11 10,-12 q 10,-11 34,-35 24,-24 26,-24 1,0 56,35 l 54,35 v 18 q 0,94 8,188 0,5 0,10 0,5 0,9 z m 15,-410 q 0,22 -6,58 -6,36 -11,65 -5,29 -6,29 -5,0 -89,-65 -84,-65 -103,-85 77,-77 144,-77 32,0 51,16 19,16 20,49 z" /></g></g><g
             data-mml-node="mi"
             transform="matrix(0.707,0,0,0.707,537,413)"
             id="g8681"><path
               id="use8679"
               d="m 121,647 q 0,10 4,23 4,13 12,13 1,0 72,5 71,5 73,6 12,0 12,-8 0,-7 -50,-209 -50,-198 -50,-205 19,10 29,19 24,18 69,63 45,45 70,61 40,27 76,27 30,0 47,-19 17,-19 18,-54 0,-25 -7,-42 -7,-17 -19,-25 -12,-8 -21,-11 -9,-3 -18,-3 -20,0 -32,11 -12,11 -12,29 0,25 16,41 16,16 32,21 l 16,3 q -12,12 -24,12 h -4 q -32,-3 -63,-25 -31,-22 -73,-64 -42,-42 -66,-61 2,-1 15,-3 13,-2 24,-6 11,-4 26,-8 15,-4 27,-14 12,-10 22,-18 10,-8 17,-26 7,-18 6,-33 0,-17 -5,-41 -5,-24 -6,-40 0,-40 27,-40 48,0 78,119 2,8 20,8 h 4 q 16,0 16,-9 0,-5 -3,-14 -41,-141 -118,-141 -45,0 -73,26 -28,26 -28,75 0,18 3,31 3,13 3,24 0,22 -14,38 -14,16 -35,23 -21,7 -34,11 -13,4 -18,3 h -2 q -12,-42 -21,-81 -9,-39 -14,-58 -5,-19 -9,-37 -4,-18 -7,-24 -3,-6 -7,-13 -4,-7 -11,-9 -13,-9 -28,-9 -17,0 -26,10 -9,10 -9,17 0,10 37,160 37,150 73,295 l 37,145 q 1,13 -7,16 -8,3 -39,5 h -5 q -10,0 -13,0 -3,0 -7,3 -4,3 -3,7 z" /></g></g></g></g><g
       stroke="#000000"
       fill="#000000"
       stroke-width="0"
       transform="matrix(0.02424041,0,0,-0.0242404,54.051012,121.76576)"
       id="g8909"><g
         data-mml-node="math"
         id="g8907"><g
           data-mml-node="msup"
           id="g8905"><g
             data-mml-node="TeXAtom"
             data-mjx-texclass="ORD"
             id="g8899"><g
               data-mml-node="mi"
               id="g8897"><path
                 id="use8895"
                 d="m 28,9 q 0,28 15,54 15,26 30,27 4,0 10,-6 6,-6 20,-14 14,-8 38,-13 h 5 q 16,0 32,22 16,22 44,88 44,112 73,204 29,92 39,142 10,50 15,85 5,35 9,53 4,18 13,26 26,28 61,28 10,0 13,-6 3,-6 7,-33 1,-5 1,-7 22,-121 56,-254 34,-133 59,-198 l 6,-15 q 7,-14 13,-28 6,-14 7,-14 2,0 41,39 39,39 58,59 72,76 170,190 98,114 161,188 63,74 65,75 4,4 11,4 11,0 11,-23 0,-7 -3,-22 -3,-15 -9,-49 -6,-34 -13,-71 -45,-263 -45,-396 0,-46 3,-69 3,-23 6,-27 3,-4 9,-6 5,-1 16,4 27,15 46,15 16,0 16,-11 0,-22 -50,-50 -50,-28 -87,-29 -17,0 -28,6 -11,6 -17,14 -6,8 -10,25 -4,17 -3,29 1,12 -1,38 v 13 q 0,62 11,160 11,98 22,166 l 11,67 q -1,0 -46,-53 Q 894,383 821,300 748,217 698,164 665,128 620,85 575,42 568,37 q -4,-3 -10,-3 -8,0 -12,3 -4,3 -11,17 -23,37 -39,73 -16,36 -46,132 -30,96 -61,239 l -5,20 Q 349,367 294,223 239,79 198,15 155,-50 117,-50 87,-50 61,-35 35,-20 30,-6 28,2 28,9 Z" /></g></g><g
             data-mml-node="mi"
             transform="matrix(0.707,0,0,0.707,1234,413)"
             id="g8903"><path
               id="use8901"
               d="m 234,637 q -3,0 -8,0 -25,0 -30,1 -5,1 -5,11 0,27 11,33 2,1 97,1 77,0 88,0 11,0 14,-6 211,-496 215,-509 l 54,213 q 53,211 53,225 0,27 -64,31 -24,0 -24,11 0,2 2,12 4,16 6,19 2,3 10,4 3,0 31,-1 28,-1 83,-2 50,0 76,1 26,1 30,1 15,0 15,-10 0,-22 -8,-30 -2,-5 -22,-5 -71,-4 -89,-40 L 620,7 Q 618,0 599,0 585,0 582,2 579,5 453,305 L 326,604 261,344 Q 196,88 196,79 201,46 268,46 h 10 q 6,-5 6,-8 0,-3 -2,-19 Q 278,6 272,0 H 259 Q 228,2 151,2 123,2 100,2 77,2 63,2 49,2 46,1 31,1 31,10 q 0,4 3,16 3,12 5,14 2,6 23,6 68,3 88,39 4,6 71,277 l 68,272 q -2,1 -55,3 z" /></g></g></g></g><g
       stroke="#000000"
       fill="#000000"
       stroke-width="0"
       transform="matrix(0.0242439,0,0,-0.02424392,2.1099646,216.75019)"
       id="g10039"><g
         data-mml-node="math"
         id="g10037"><g
           data-mml-node="msup"
           id="g10035"><g
             data-mml-node="TeXAtom"
             data-mjx-texclass="ORD"
             id="g10029"><g
               data-mml-node="mi"
               id="g10027"><path
                 id="use10025"
                 d="m 28,9 q 0,28 15,54 15,26 30,27 4,0 10,-6 6,-6 20,-14 14,-8 38,-13 h 5 q 16,0 32,22 16,22 44,88 44,112 73,204 29,92 39,142 10,50 15,85 5,35 9,53 4,18 13,26 26,28 61,28 10,0 13,-6 3,-6 7,-33 1,-5 1,-7 22,-121 56,-254 34,-133 59,-198 l 6,-15 q 7,-14 13,-28 6,-14 7,-14 2,0 41,39 39,39 58,59 72,76 170,190 98,114 161,188 63,74 65,75 4,4 11,4 11,0 11,-23 0,-7 -3,-22 -3,-15 -9,-49 -6,-34 -13,-71 -45,-263 -45,-396 0,-46 3,-69 3,-23 6,-27 3,-4 9,-6 5,-1 16,4 27,15 46,15 16,0 16,-11 0,-22 -50,-50 -50,-28 -87,-29 -17,0 -28,6 -11,6 -17,14 -6,8 -10,25 -4,17 -3,29 1,12 -1,38 v 13 q 0,62 11,160 11,98 22,166 l 11,67 q -1,0 -46,-53 Q 894,383 821,300 748,217 698,164 665,128 620,85 575,42 568,37 q -4,-3 -10,-3 -8,0 -12,3 -4,3 -11,17 -23,37 -39,73 -16,36 -46,132 -30,96 -61,239 l -5,20 Q 349,367 294,223 239,79 198,15 155,-50 117,-50 87,-50 61,-35 35,-20 30,-6 28,2 28,9 Z" /></g></g><g
             data-mml-node="mi"
             transform="matrix(0.707,0,0,0.707,1234,413)"
             id="g10033"><path
               id="use10031"
               d="m 21,287 q 1,6 3,16 2,10 12,38 10,28 20,47 10,19 33,37 23,18 46,17 36,0 60,-18 24,-18 30,-34 6,-16 6,-21 0,-2 1,-2 l 11,11 q 61,64 139,64 54,0 87,-27 33,-27 34,-79 1,-52 -38,-157 -39,-105 -38,-127 0,-26 17,-26 6,0 9,1 29,5 52,38 23,33 35,80 2,8 20,8 20,0 20,-8 0,-1 -4,-15 -8,-29 -22,-57 -14,-28 -46,-56 -32,-28 -69,-27 -47,0 -68,27 -21,27 -21,56 0,19 36,120 36,101 37,152 0,59 -44,59 h -5 Q 288,404 229,303 L 222,291 189,157 Q 156,26 151,16 138,-11 108,-11 95,-11 87,-5 79,1 76,7 q -3,6 -2,10 0,13 38,163 38,150 40,163 1,5 1,23 0,39 -24,39 -38,0 -63,-100 -6,-20 -6,-21 -2,-6 -19,-6 H 27 q -6,6 -6,9 z" /></g></g></g></g><rect
       style="fill:none;stroke:#000000;stroke-width:2;stroke-opacity:1;stroke-dasharray:none"
       id="rect10295"
       width="111.57671"
       height="94.9981"
       x="18.369602"
       y="69.370728" /><path
       style="fill:none;stroke:#000000;stroke-width:2;stroke-opacity:1;stroke-dasharray:none"
       d="m 41.003209,212.90123 c 35.835068,-6.66374 30.591799,10.83651 65.278771,7.94488 34.68696,-2.89164 37.58176,-12.86192 37.58176,-12.86192"
       id="path10353" /></g></svg>
